<svg xmlns="http://www.w3.org/2000/svg" > <defs> <symbol id="alarm" viewBox="0 0 32 32"> <path d="M30.74 10a15.727 15.727 0 0 0-8.243-8.24c1-.79 2.258-1.26 3.629-1.26A5.873 5.873 0 0 1 32 6.37 5.83 5.83 0 0 1 30.74 10zm-.24 6.5c0 3.85-1.512 7.34-3.963 9.94l2.029 2.03A1.48 1.48 0 0 1 27.517 31c-.41 0-.781-.17-1.049-.43l-2.178-2.18a14.467 14.467 0 0 1-16.566.01l-2.163 2.16a1.5 1.5 0 1 1-2.122-2.12l2.012-2.01C3.008 23.83 1.5 20.35 1.5 16.5 1.5 8.49 7.992 2 16 2s14.5 6.49 14.5 14.5zM16 5C9.649 5 4.5 10.15 4.5 16.5S9.649 28 16 28s11.5-5.15 11.5-11.5S22.351 5 16 5zm6 13h-6a1.5 1.5 0 0 1-1.5-1.5v-8a1.5 1.5 0 1 1 3 0V15H22a1.5 1.5 0 1 1 0 3zM1.287 10.2A5.95 5.95 0 0 1 0 6.5c0-3.31 2.686-6 6-6 1.4 0 2.685.48 3.706 1.29a16.032 16.032 0 0 0-8.419 8.41z"/>  </symbol> <symbol id="book" viewBox="0 0 32 32"> <path d="m31.065 25.89-14.471 5.99c-.182.08-.383.12-.594.12s-.412-.04-.594-.12L.935 25.89A1.496 1.496 0 0 1 0 24.5v-23C0 .67.672 0 1.5 0c.203 0 .397.04.573.11h.001l.002.01h.013L16 5.88 29.911.12h.013l.003-.01c.176-.07.37-.11.573-.11.828 0 1.5.67 1.5 1.5v23c0 .63-.387 1.17-.935 1.39zM14.5 8.5 3 3.74V23.5l11.5 4.76V8.5zM29 3.74 17.5 8.5v19.76L29 23.5V3.74zm-9.121 6.89 5.5-2.5c.189-.08.399-.13.621-.13.828 0 1.5.67 1.5 1.5 0 .61-.361 1.13-.879 1.37l-5.5 2.5c-.19.08-.4.13-.621.13A1.5 1.5 0 0 1 19 12c0-.61.361-1.13.879-1.37zm0 5.5 5.5-2.5c.189-.08.399-.13.621-.13.828 0 1.5.67 1.5 1.5 0 .61-.361 1.13-.879 1.37l-5.5 2.5c-.19.08-.4.13-.621.13a1.5 1.5 0 0 1-1.5-1.5c0-.61.361-1.13.879-1.37zm0 5.5 5.5-2.5c.189-.08.399-.13.621-.13.828 0 1.5.67 1.5 1.5 0 .61-.361 1.13-.879 1.37l-5.5 2.5c-.19.08-.4.13-.621.13A1.5 1.5 0 0 1 19 23c0-.61.361-1.13.879-1.37zM6 8c.221 0 .431.05.621.13l5.5 2.5c.518.24.879.76.879 1.37a1.5 1.5 0 0 1-1.5 1.5c-.222 0-.432-.05-.621-.13l-5.5-2.5A1.508 1.508 0 0 1 4.5 9.5C4.5 8.67 5.172 8 6 8zm0 5.5c.221 0 .431.05.621.13l5.5 2.5c.518.24.879.76.879 1.37a1.5 1.5 0 0 1-1.5 1.5c-.222 0-.432-.05-.621-.13l-5.5-2.5A1.508 1.508 0 0 1 4.5 15c0-.83.672-1.5 1.5-1.5zM6 19c.221 0 .431.05.621.13l5.5 2.5c.518.24.879.76.879 1.37a1.5 1.5 0 0 1-1.5 1.5c-.222 0-.432-.05-.621-.13l-5.5-2.5A1.508 1.508 0 0 1 4.5 20.5c0-.83.672-1.5 1.5-1.5z"/> </symbol> <symbol id="cart" viewBox="0 0 32 32"> <path d="m31.164 8.157-4.409 9.778a1.447 1.447 0 0 1-1.227.862l-12.676.844.729 2.091h13.796a2.935 2.935 0 0 1 0 5.868 2.935 2.935 0 0 1-2.933-2.933H10.755c0 1.62-1.316 2.933-2.933 2.933s-2.933-1.314-2.933-2.933a2.936 2.936 0 0 1 2.933-2.935h2.649L4.818 5.6H1.476A1.47 1.47 0 0 1 0 4.133a1.47 1.47 0 0 1 1.476-1.467h4.391c.64 0 1.173.412 1.387.983v-.002l.853 2.441h21.724c.8 0 1.458.656 1.458 1.467 0 .213-.053.416-.124.601zm-22.026.866 2.702 7.746 12.604-.841 3.111-6.905H9.137z"/> </symbol> <symbol id="computer" viewBox="0 0 32 32"> <path d="M30.452 25.29h-9.806v2.581l2.065 2.065v.516H9.292v-.516l2.065-2.065V25.29H1.551a1.546 1.546 0 0 1-1.548-1.548V3.097c0-.857.692-1.548 1.548-1.548h28.903c.857 0 1.548.692 1.548 1.548v20.645c0 .857-.692 1.548-1.548 1.548zm-.517-21.677H2.064v17.548h27.871V3.613zm-17.032 7.226c.423 0 .815.175 1.094.454l.97.97 3.035-3.035a1.546 1.546 0 1 1 2.188 2.188l-4.129 4.129c-.279.279-.671.454-1.094.454s-.815-.175-1.094-.454l-2.065-2.065a1.546 1.546 0 0 1 1.094-2.642z"/> </symbol> <symbol id="facebook" viewBox="0 0 32 32"> <path d="M22.748.012v5.071s-3.738-.369-4.674 1.058c-.512.788-.208 3.077-.254 4.726h4.959c-.418 1.92-.719 3.225-1.028 4.898h-3.958v15.754h-6.87V15.827H8v-4.96h2.891c.148-3.631.203-7.212 2.005-9.046C14.919-.234 16.85.012 22.748.012z"/> </symbol> <symbol id="graph" viewBox="0 0 31 32"> <path d="M29.576 31.03H1.455C.652 31.03 0 30.38 0 29.575V1.454C0 .649.652-.001 1.455-.001h28.121c.803 0 1.455.65 1.455 1.455v28.121c0 .805-.652 1.455-1.455 1.455zM28.121 2.909H2.909v25.212h25.212V2.909zM5.057 15.748l3.879-2.424a1.45 1.45 0 0 1 .761-.213c.302 0 .582.087.815.242h.006l6.43 4.286 7.407-5.227c.241-.184.537-.281.858-.281.803 0 1.455.65 1.455 1.455 0 .485-.238.912-.603 1.173h.001l-8.243 5.818a1.438 1.438 0 0 1-.851.281c-.311 0-.599-.107-.835-.271l-6.455-4.296-3.04 1.901a1.454 1.454 0 0 1-2.276-1.203c0-.524.277-.989.693-1.241z"/> </symbol> <symbol id="home" viewBox="0 0 32 32"> <path d="M32 16.5a1.5 1.5 0 0 1-1.5 1.5c-.395 0-.752-.16-1.02-.41l-.003.01L16 4.12 2.553 17.57c-.271.27-.643.43-1.053.43a1.5 1.5 0 0 1-1.039-2.58L14.919.96A1.51 1.51 0 0 1 16 .5h.092c.023 0 .045.01.068.01h.004c.367.04.694.21.933.47h.001L23 6.88V5.5a1.5 1.5 0 1 1 3 0v4.38l5.594 5.6c.25.27.406.63.406 1.02zM29 19v10.5a1.5 1.5 0 0 1-1.5 1.5h-3V19h-6v12h-14A1.5 1.5 0 0 1 3 29.5V19L16 6l13 13zm-15.5 0h-6v6h6v-6z"/> </symbol> <symbol id="image" viewBox="0 0 32 32"> <path d="M29.576 31.515H1.455C.65 31.515 0 30.865 0 30.06V1.939C0 1.134.65.484 1.455.484h28.121c.805 0 1.455.65 1.455 1.455V30.06c0 .805-.65 1.455-1.455 1.455zM28.121 3.394H2.909v25.212h25.212V3.394zM4.364 4.848h7.273c.805 0 1.455.65 1.455 1.455s-.65 1.455-1.455 1.455H7.273v4.364c0 .805-.65 1.455-1.455 1.455s-1.455-.65-1.455-1.455V4.849zm0 15.031c0-.805.65-1.455 1.455-1.455s1.455.65 1.455 1.455v4.364h4.364c.805 0 1.455.65 1.455 1.455s-.65 1.455-1.455 1.455H4.365V19.88zm15.03-15.031h7.273v7.273c0 .805-.65 1.455-1.455 1.455s-1.455-.65-1.455-1.455V7.757h-4.364c-.805 0-1.455-.65-1.455-1.455s.65-1.455 1.455-1.455zm0 19.394h4.364v-4.364c0-.805.65-1.455 1.455-1.455s1.455.65 1.455 1.455v7.273h-7.273c-.805 0-1.455-.65-1.455-1.455s.65-1.455 1.455-1.455z"/> </symbol> <symbol id="instagram" viewBox="0 0 32 32"> <path d="M27.569 31.508H3.938A3.936 3.936 0 0 1 0 27.57V3.939A3.937 3.937 0 0 1 3.938.001h23.631a3.936 3.936 0 0 1 3.938 3.938V27.57a3.937 3.937 0 0 1-3.938 3.938zM15.754 9.649a6.096 6.096 0 0 0-5.536 3.545h-.006c-.01.025-.017.049-.027.062-.058.135-.108.271-.158.406-.023.062-.049.123-.07.185-.046.135-.082.283-.117.418a7.156 7.156 0 0 0-.052.197c-.032.148-.054.308-.075.455-.009.062-.021.123-.028.185a6.105 6.105 0 1 0 12.138 0c-.007-.062-.02-.123-.028-.185-.021-.148-.043-.308-.075-.455a4.771 4.771 0 0 0-.052-.197c-.034-.135-.071-.283-.117-.418-.021-.062-.047-.123-.07-.185a7.545 7.545 0 0 0-.158-.406c-.01-.012-.017-.037-.027-.062h-.006a6.098 6.098 0 0 0-5.536-3.545zM27.963 5.12c0-.874-.705-1.575-1.575-1.575h-3.151c-.87 0-1.575.702-1.575 1.575v3.151c0 .874.705 1.575 1.575 1.575h3.151c.87 0 1.575-.702 1.575-1.575V5.12zm0 8.074h-2.905a9.649 9.649 0 0 1-9.304 12.209A9.649 9.649 0 0 1 6.45 13.194H3.545v13.194c0 .874.705 1.575 1.575 1.575h21.268c.87 0 1.575-.702 1.575-1.575V13.194z"/> </symbol> <symbol id="pinterest" viewBox="0 0 32 32"> <path d="M13.726 20.492c-.257 1.034-.517 2.105-.785 3.151-.265 1.046-.498 2.092-.884 3.04-.639 1.575-1.45 3.102-2.514 4.345-.708.812-.558.492-.77.443-.162-.037-.176-.197-.208-.418-.174-1.255-.055-2.708.009-4.111.074-1.612.411-2.942.725-4.271.596-2.548 1.164-5.034 1.766-7.594.039-.172.148-.443.111-.542-.273-.714-.45-1.354-.528-2.105a6.657 6.657 0 0 1 .171-2.388c.341-1.305 1.124-2.449 2.331-2.88.768-.258 1.618-.135 2.135.172.532.308.897.812 1.067 1.526.182.763.048 1.662-.098 2.326-.329 1.502-.761 2.634-1.153 4.074-.194.726-.415 1.452-.233 2.228a2.606 2.606 0 0 0 1.042 1.575c.524.382 1.145.591 2 .554 1.511-.049 2.561-1.009 3.263-1.92 1.124-1.465 1.803-3.434 2.062-5.772.082-.751.144-1.625.086-2.474-.108-1.588-.602-2.855-1.387-3.84-.746-.935-1.804-1.686-3.092-2.105-1.276-.418-3.042-.554-4.612-.283-2.853.48-4.864 2.105-6.049 4.345-.62 1.169-1.03 2.523-1.03 4.197 0 1.292.319 2.289.834 3.077.164.246.404.455.564.738.228.394-.034.997-.146 1.428-.135.529-.15 1.243-.761 1.255-.254.012-.571-.172-.785-.295-1.606-.886-2.581-2.498-2.981-4.591-.244-1.28-.242-2.757 0-3.988.234-1.194.67-2.289 1.153-3.175 1.002-1.858 2.47-3.335 4.257-4.394C10.66 1.008 12.209.442 14.095.171c.625-.098 1.273-.135 1.975-.172a12.192 12.192 0 0 1 5.324.997 10.923 10.923 0 0 1 3.668 2.646c1.031 1.132 1.782 2.437 2.257 4.074.249.849.49 1.76.49 2.818s-.223 1.982-.379 2.905c-.583 3.483-2.239 6.338-4.724 7.951a7.87 7.87 0 0 1-2.159.997c-.821.246-1.758.418-2.761.357-.974-.074-1.771-.332-2.441-.714-.665-.382-1.223-.837-1.62-1.538z"/> </symbol> <symbol id="search" viewBox="0 0 32 32"> <path d="M30.436 26.282c.533.53.853 1.264.853 2.075a2.935 2.935 0 0 1-5.013 2.073l-8.587-8.596a11.737 11.737 0 0 1-5.956 1.634C5.244 23.468 0 18.215 0 11.735S5.244.002 11.733.002c6.471 0 11.733 5.253 11.733 11.733 0 2.174-.604 4.204-1.636 5.95l8.604 8.597zM11.733 2.932c-4.853 0-8.8 3.941-8.8 8.802s3.947 8.8 8.8 8.8c4.853 0 8.8-3.94 8.8-8.8s-3.947-8.802-8.8-8.802z"/> </symbol> <symbol id="twitter" viewBox="0 0 32 32"> <path d="M21.431 3.077c2.503-.037 3.836.874 5.109 2.031 1.081-.098 2.485-.702 3.312-1.12l.804-.443c-.473 1.28-1.113 2.277-2.097 3.04-.219.172-.436.394-.71.505v.012c1.403-.012 2.56-.64 3.659-.985v.012c-.577.911-1.359 1.846-2.192 2.511-.336.271-.673.542-1.009.8.018 1.489-.022 2.905-.299 4.16-1.615 7.249-5.893 12.172-12.663 14.289-2.432.751-6.361 1.071-9.147.382-1.381-.345-2.629-.738-3.799-1.243a17.957 17.957 0 0 1-1.83-.948c-.19-.111-.378-.234-.567-.345.628.012 1.364.185 2.065.074.636-.098 1.259-.074 1.846-.197 1.462-.32 2.761-.751 3.878-1.403.543-.32 1.366-.689 1.751-1.145-.726.012-1.385-.16-1.924-.345-2.091-.738-3.308-2.105-4.101-4.135.634.062 2.459.234 2.886-.135-.798-.037-1.564-.505-2.113-.849-1.682-1.046-3.054-2.806-3.044-5.526.222.098.442.209.662.308.423.185.853.283 1.356.382.213.049.639.172.884.074h-.032c-.325-.369-.855-.628-1.183-1.034-1.079-1.342-2.09-3.409-1.451-5.858.162-.628.42-1.182.694-1.686.011 0 .021.012.032.012.126.258.406.455.583.677.551.689 1.231 1.305 1.924 1.846 2.361 1.846 4.486 2.978 7.9 3.815.866.209 1.867.382 2.902.382-.29-.849-.197-2.215.031-3.04.576-2.055 1.825-3.545 3.659-4.345.438-.185.924-.32 1.435-.431.263-.037.526-.062.789-.098z"/> </symbol> <symbol id="hamburger" viewBox="9 5 5 20"><path d="M6.4 11.733V9.6h19.2v2.133H6.4zm0 5.334h19.2v-2.133H6.4v2.133zm0 5.333h19.2v-2.133H6.4V22.4z"/></symbol>
<symbol id="close" viewBox="0 0 20 20">
<path d="M5.293 6.707l5.293 5.293-5.293 5.293c-0.391 0.391-0.391 1.024 0 1.414s1.024 0.391 1.414 0l5.293-5.293 5.293 5.293c0.391 0.391 1.024 0.391 1.414 0s0.391-1.024 0-1.414l-5.293-5.293 5.293-5.293c0.391-0.391 0.391-1.024 0-1.414s-1.024-0.391-1.414 0l-5.293 5.293-5.293-5.293c-0.391-0.391-1.024-0.391-1.414 0s-0.391 1.024 0 1.414z"></path>
</symbol> </defs> </svg> 